<svg xmlns="http://www.w3.org/2000/svg" viewBox="0 0 864 390" role="img" aria-hidden="true">
  <g fill="#43b8e6">
    <circle cx="302" cy="14" r="2.35"/>
    <circle cx="318" cy="14" r="3.10"/>
    <circle cx="334" cy="14" r="3.10"/>
    <circle cx="350" cy="14" r="3.10"/>
    <circle cx="366" cy="14" r="3.10"/>
    <circle cx="382" cy="14" r="3.10"/>
    <circle cx="398" cy="14" r="3.10"/>
    <circle cx="158" cy="30" r="3.10"/>
    <circle cx="222" cy="30" r="3.10"/>
    <circle cx="238" cy="30" r="3.10"/>
    <circle cx="254" cy="30" r="3.10"/>
    <circle cx="270" cy="30" r="3.10"/>
    <circle cx="286" cy="30" r="3.10"/>
    <circle cx="302" cy="30" r="3.10"/>
    <circle cx="350" cy="30" r="3.10"/>
    <circle cx="366" cy="30" r="3.10"/>
    <circle cx="382" cy="30" r="3.10"/>
    <circle cx="526" cy="30" r="3.10"/>
    <circle cx="558" cy="30" r="3.10"/>
    <circle cx="574" cy="30" r="3.10"/>
    <circle cx="590" cy="30" r="3.10"/>
    <circle cx="606" cy="30" r="2.35"/>
    <circle cx="622" cy="30" r="3.10"/>
    <circle cx="638" cy="30" r="3.10"/>
    <circle cx="654" cy="30" r="3.10"/>
    <circle cx="670" cy="30" r="3.10"/>
    <circle cx="686" cy="30" r="3.10"/>
    <circle cx="702" cy="30" r="3.10"/>
    <circle cx="110" cy="46" r="3.10"/>
    <circle cx="142" cy="46" r="3.10"/>
    <circle cx="158" cy="46" r="3.10"/>
    <circle cx="174" cy="46" r="3.10"/>
    <circle cx="190" cy="46" r="2.35"/>
    <circle cx="206" cy="46" r="3.10"/>
    <circle cx="222" cy="46" r="3.10"/>
    <circle cx="238" cy="46" r="3.10"/>
    <circle cx="254" cy="46" r="3.10"/>
    <circle cx="270" cy="46" r="3.10"/>
    <circle cx="302" cy="46" r="3.10"/>
    <circle cx="350" cy="46" r="3.10"/>
    <circle cx="398" cy="46" r="3.10"/>
    <circle cx="462" cy="46" r="3.10"/>
    <circle cx="478" cy="46" r="2.35"/>
    <circle cx="494" cy="46" r="3.10"/>
    <circle cx="510" cy="46" r="3.10"/>
    <circle cx="526" cy="46" r="3.10"/>
    <circle cx="542" cy="46" r="3.10"/>
    <circle cx="558" cy="46" r="3.10"/>
    <circle cx="574" cy="46" r="3.10"/>
    <circle cx="590" cy="46" r="3.10"/>
    <circle cx="606" cy="46" r="3.10"/>
    <circle cx="622" cy="46" r="2.35"/>
    <circle cx="638" cy="46" r="3.10"/>
    <circle cx="654" cy="46" r="3.10"/>
    <circle cx="670" cy="46" r="3.10"/>
    <circle cx="686" cy="46" r="3.10"/>
    <circle cx="702" cy="46" r="3.10"/>
    <circle cx="718" cy="46" r="3.10"/>
    <circle cx="734" cy="46" r="3.10"/>
    <circle cx="750" cy="46" r="3.10"/>
    <circle cx="126" cy="62" r="3.10"/>
    <circle cx="174" cy="62" r="3.10"/>
    <circle cx="190" cy="62" r="3.10"/>
    <circle cx="206" cy="62" r="2.35"/>
    <circle cx="222" cy="62" r="3.10"/>
    <circle cx="238" cy="62" r="3.10"/>
    <circle cx="286" cy="62" r="3.10"/>
    <circle cx="302" cy="62" r="3.10"/>
    <circle cx="446" cy="62" r="3.10"/>
    <circle cx="462" cy="62" r="3.10"/>
    <circle cx="478" cy="62" r="3.10"/>
    <circle cx="494" cy="62" r="2.35"/>
    <circle cx="510" cy="62" r="3.10"/>
    <circle cx="526" cy="62" r="3.10"/>
    <circle cx="542" cy="62" r="3.10"/>
    <circle cx="558" cy="62" r="3.10"/>
    <circle cx="574" cy="62" r="3.10"/>
    <circle cx="590" cy="62" r="3.10"/>
    <circle cx="606" cy="62" r="3.10"/>
    <circle cx="622" cy="62" r="3.10"/>
    <circle cx="638" cy="62" r="2.35"/>
    <circle cx="654" cy="62" r="3.10"/>
    <circle cx="670" cy="62" r="3.10"/>
    <circle cx="686" cy="62" r="3.10"/>
    <circle cx="702" cy="62" r="3.10"/>
    <circle cx="750" cy="62" r="3.10"/>
    <circle cx="174" cy="78" r="3.10"/>
    <circle cx="190" cy="78" r="3.10"/>
    <circle cx="206" cy="78" r="3.10"/>
    <circle cx="222" cy="78" r="2.35"/>
    <circle cx="238" cy="78" r="3.10"/>
    <circle cx="254" cy="78" r="3.10"/>
    <circle cx="270" cy="78" r="3.10"/>
    <circle cx="286" cy="78" r="3.10"/>
    <circle cx="302" cy="78" r="3.10"/>
    <circle cx="318" cy="78" r="3.10"/>
    <circle cx="414" cy="78" r="3.10"/>
    <circle cx="430" cy="78" r="3.10"/>
    <circle cx="446" cy="78" r="3.10"/>
    <circle cx="462" cy="78" r="3.10"/>
    <circle cx="478" cy="78" r="3.10"/>
    <circle cx="494" cy="78" r="3.10"/>
    <circle cx="510" cy="78" r="2.35"/>
    <circle cx="526" cy="78" r="3.10"/>
    <circle cx="542" cy="78" r="3.10"/>
    <circle cx="558" cy="78" r="3.10"/>
    <circle cx="574" cy="78" r="3.10"/>
    <circle cx="590" cy="78" r="3.10"/>
    <circle cx="606" cy="78" r="3.10"/>
    <circle cx="622" cy="78" r="3.10"/>
    <circle cx="638" cy="78" r="3.10"/>
    <circle cx="654" cy="78" r="2.35"/>
    <circle cx="670" cy="78" r="3.10"/>
    <circle cx="686" cy="78" r="3.10"/>
    <circle cx="702" cy="78" r="3.10"/>
    <circle cx="718" cy="78" r="3.10"/>
    <circle cx="750" cy="78" r="3.10"/>
    <circle cx="174" cy="94" r="3.10"/>
    <circle cx="190" cy="94" r="3.10"/>
    <circle cx="206" cy="94" r="3.10"/>
    <circle cx="222" cy="94" r="3.10"/>
    <circle cx="238" cy="94" r="2.35"/>
    <circle cx="254" cy="94" r="3.10"/>
    <circle cx="270" cy="94" r="3.10"/>
    <circle cx="286" cy="94" r="3.10"/>
    <circle cx="430" cy="94" r="3.10"/>
    <circle cx="446" cy="94" r="3.10"/>
    <circle cx="462" cy="94" r="3.10"/>
    <circle cx="478" cy="94" r="3.10"/>
    <circle cx="494" cy="94" r="3.10"/>
    <circle cx="510" cy="94" r="3.10"/>
    <circle cx="526" cy="94" r="2.35"/>
    <circle cx="542" cy="94" r="3.10"/>
    <circle cx="558" cy="94" r="3.10"/>
    <circle cx="574" cy="94" r="3.10"/>
    <circle cx="590" cy="94" r="3.10"/>
    <circle cx="606" cy="94" r="3.10"/>
    <circle cx="622" cy="94" r="3.10"/>
    <circle cx="638" cy="94" r="3.10"/>
    <circle cx="654" cy="94" r="3.10"/>
    <circle cx="670" cy="94" r="2.35"/>
    <circle cx="686" cy="94" r="3.10"/>
    <circle cx="702" cy="94" r="3.10"/>
    <circle cx="718" cy="94" r="3.10"/>
    <circle cx="158" cy="110" r="3.10"/>
    <circle cx="174" cy="110" r="3.10"/>
    <circle cx="190" cy="110" r="3.10"/>
    <circle cx="206" cy="110" r="3.10"/>
    <circle cx="222" cy="110" r="3.10"/>
    <circle cx="238" cy="110" r="3.10"/>
    <circle cx="254" cy="110" r="2.35"/>
    <circle cx="270" cy="110" r="3.10"/>
    <circle cx="414" cy="110" r="3.10"/>
    <circle cx="430" cy="110" r="3.10"/>
    <circle cx="462" cy="110" r="3.10"/>
    <circle cx="478" cy="110" r="3.10"/>
    <circle cx="494" cy="110" r="3.10"/>
    <circle cx="510" cy="110" r="3.10"/>
    <circle cx="526" cy="110" r="3.10"/>
    <circle cx="542" cy="110" r="2.35"/>
    <circle cx="558" cy="110" r="3.10"/>
    <circle cx="574" cy="110" r="3.10"/>
    <circle cx="590" cy="110" r="3.10"/>
    <circle cx="606" cy="110" r="3.10"/>
    <circle cx="622" cy="110" r="3.10"/>
    <circle cx="638" cy="110" r="3.10"/>
    <circle cx="654" cy="110" r="3.10"/>
    <circle cx="670" cy="110" r="3.10"/>
    <circle cx="686" cy="110" r="2.35"/>
    <circle cx="702" cy="110" r="3.10"/>
    <circle cx="718" cy="110" r="3.10"/>
    <circle cx="158" cy="126" r="3.10"/>
    <circle cx="174" cy="126" r="3.10"/>
    <circle cx="190" cy="126" r="3.10"/>
    <circle cx="206" cy="126" r="3.10"/>
    <circle cx="222" cy="126" r="3.10"/>
    <circle cx="238" cy="126" r="3.10"/>
    <circle cx="254" cy="126" r="3.10"/>
    <circle cx="414" cy="126" r="2.35"/>
    <circle cx="430" cy="126" r="3.10"/>
    <circle cx="446" cy="126" r="3.10"/>
    <circle cx="526" cy="126" r="3.10"/>
    <circle cx="542" cy="126" r="3.10"/>
    <circle cx="558" cy="126" r="2.35"/>
    <circle cx="574" cy="126" r="3.10"/>
    <circle cx="590" cy="126" r="3.10"/>
    <circle cx="606" cy="126" r="3.10"/>
    <circle cx="622" cy="126" r="3.10"/>
    <circle cx="638" cy="126" r="3.10"/>
    <circle cx="654" cy="126" r="3.10"/>
    <circle cx="670" cy="126" r="3.10"/>
    <circle cx="686" cy="126" r="3.10"/>
    <circle cx="702" cy="126" r="2.35"/>
    <circle cx="718" cy="126" r="3.10"/>
    <circle cx="734" cy="126" r="3.10"/>
    <circle cx="174" cy="142" r="3.10"/>
    <circle cx="190" cy="142" r="3.10"/>
    <circle cx="206" cy="142" r="3.10"/>
    <circle cx="238" cy="142" r="3.10"/>
    <circle cx="414" cy="142" r="3.10"/>
    <circle cx="430" cy="142" r="2.35"/>
    <circle cx="446" cy="142" r="3.10"/>
    <circle cx="462" cy="142" r="3.10"/>
    <circle cx="478" cy="142" r="3.10"/>
    <circle cx="494" cy="142" r="3.10"/>
    <circle cx="510" cy="142" r="3.10"/>
    <circle cx="526" cy="142" r="3.10"/>
    <circle cx="542" cy="142" r="3.10"/>
    <circle cx="558" cy="142" r="3.10"/>
    <circle cx="574" cy="142" r="2.35"/>
    <circle cx="590" cy="142" r="3.10"/>
    <circle cx="606" cy="142" r="3.10"/>
    <circle cx="622" cy="142" r="3.10"/>
    <circle cx="638" cy="142" r="3.10"/>
    <circle cx="654" cy="142" r="3.10"/>
    <circle cx="670" cy="142" r="3.10"/>
    <circle cx="686" cy="142" r="3.10"/>
    <circle cx="702" cy="142" r="3.10"/>
    <circle cx="190" cy="158" r="3.10"/>
    <circle cx="222" cy="158" r="3.10"/>
    <circle cx="398" cy="158" r="3.10"/>
    <circle cx="414" cy="158" r="3.10"/>
    <circle cx="430" cy="158" r="3.10"/>
    <circle cx="446" cy="158" r="2.35"/>
    <circle cx="462" cy="158" r="3.10"/>
    <circle cx="478" cy="158" r="3.10"/>
    <circle cx="494" cy="158" r="3.10"/>
    <circle cx="510" cy="158" r="3.10"/>
    <circle cx="526" cy="158" r="3.10"/>
    <circle cx="542" cy="158" r="3.10"/>
    <circle cx="558" cy="158" r="3.10"/>
    <circle cx="606" cy="158" r="3.10"/>
    <circle cx="622" cy="158" r="3.10"/>
    <circle cx="638" cy="158" r="3.10"/>
    <circle cx="654" cy="158" r="3.10"/>
    <circle cx="670" cy="158" r="3.10"/>
    <circle cx="686" cy="158" r="3.10"/>
    <circle cx="702" cy="158" r="3.10"/>
    <circle cx="718" cy="158" r="3.10"/>
    <circle cx="190" cy="174" r="3.10"/>
    <circle cx="206" cy="174" r="3.10"/>
    <circle cx="222" cy="174" r="3.10"/>
    <circle cx="398" cy="174" r="3.10"/>
    <circle cx="414" cy="174" r="3.10"/>
    <circle cx="430" cy="174" r="3.10"/>
    <circle cx="446" cy="174" r="3.10"/>
    <circle cx="462" cy="174" r="2.35"/>
    <circle cx="478" cy="174" r="3.10"/>
    <circle cx="494" cy="174" r="3.10"/>
    <circle cx="510" cy="174" r="3.10"/>
    <circle cx="526" cy="174" r="3.10"/>
    <circle cx="542" cy="174" r="3.10"/>
    <circle cx="558" cy="174" r="3.10"/>
    <circle cx="606" cy="174" r="2.35"/>
    <circle cx="622" cy="174" r="3.10"/>
    <circle cx="654" cy="174" r="3.10"/>
    <circle cx="670" cy="174" r="3.10"/>
    <circle cx="686" cy="174" r="3.10"/>
    <circle cx="718" cy="174" r="3.10"/>
    <circle cx="254" cy="190" r="3.10"/>
    <circle cx="270" cy="190" r="3.10"/>
    <circle cx="398" cy="190" r="3.10"/>
    <circle cx="414" cy="190" r="3.10"/>
    <circle cx="430" cy="190" r="3.10"/>
    <circle cx="446" cy="190" r="3.10"/>
    <circle cx="462" cy="190" r="3.10"/>
    <circle cx="478" cy="190" r="2.35"/>
    <circle cx="494" cy="190" r="3.10"/>
    <circle cx="510" cy="190" r="3.10"/>
    <circle cx="526" cy="190" r="3.10"/>
    <circle cx="542" cy="190" r="3.10"/>
    <circle cx="622" cy="190" r="2.35"/>
    <circle cx="686" cy="190" r="3.10"/>
    <circle cx="254" cy="206" r="3.10"/>
    <circle cx="270" cy="206" r="3.10"/>
    <circle cx="286" cy="206" r="3.10"/>
    <circle cx="302" cy="206" r="3.10"/>
    <circle cx="414" cy="206" r="3.10"/>
    <circle cx="430" cy="206" r="3.10"/>
    <circle cx="446" cy="206" r="3.10"/>
    <circle cx="462" cy="206" r="3.10"/>
    <circle cx="478" cy="206" r="3.10"/>
    <circle cx="494" cy="206" r="2.35"/>
    <circle cx="510" cy="206" r="3.10"/>
    <circle cx="526" cy="206" r="3.10"/>
    <circle cx="542" cy="206" r="3.10"/>
    <circle cx="670" cy="206" r="3.10"/>
    <circle cx="702" cy="206" r="3.10"/>
    <circle cx="238" cy="222" r="3.10"/>
    <circle cx="254" cy="222" r="3.10"/>
    <circle cx="270" cy="222" r="3.10"/>
    <circle cx="286" cy="222" r="3.10"/>
    <circle cx="302" cy="222" r="3.10"/>
    <circle cx="318" cy="222" r="3.10"/>
    <circle cx="462" cy="222" r="3.10"/>
    <circle cx="478" cy="222" r="3.10"/>
    <circle cx="494" cy="222" r="3.10"/>
    <circle cx="510" cy="222" r="2.35"/>
    <circle cx="526" cy="222" r="3.10"/>
    <circle cx="670" cy="222" r="3.10"/>
    <circle cx="702" cy="222" r="3.10"/>
    <circle cx="718" cy="222" r="3.10"/>
    <circle cx="750" cy="222" r="3.10"/>
    <circle cx="766" cy="222" r="3.10"/>
    <circle cx="238" cy="238" r="2.35"/>
    <circle cx="254" cy="238" r="3.10"/>
    <circle cx="270" cy="238" r="3.10"/>
    <circle cx="286" cy="238" r="3.10"/>
    <circle cx="302" cy="238" r="3.10"/>
    <circle cx="318" cy="238" r="3.10"/>
    <circle cx="334" cy="238" r="3.10"/>
    <circle cx="350" cy="238" r="3.10"/>
    <circle cx="462" cy="238" r="3.10"/>
    <circle cx="478" cy="238" r="3.10"/>
    <circle cx="494" cy="238" r="3.10"/>
    <circle cx="510" cy="238" r="3.10"/>
    <circle cx="526" cy="238" r="2.35"/>
    <circle cx="686" cy="238" r="3.10"/>
    <circle cx="702" cy="238" r="3.10"/>
    <circle cx="766" cy="238" r="3.10"/>
    <circle cx="782" cy="238" r="3.10"/>
    <circle cx="254" cy="254" r="2.35"/>
    <circle cx="270" cy="254" r="3.10"/>
    <circle cx="286" cy="254" r="3.10"/>
    <circle cx="302" cy="254" r="3.10"/>
    <circle cx="318" cy="254" r="3.10"/>
    <circle cx="334" cy="254" r="3.10"/>
    <circle cx="462" cy="254" r="3.10"/>
    <circle cx="478" cy="254" r="3.10"/>
    <circle cx="494" cy="254" r="3.10"/>
    <circle cx="510" cy="254" r="3.10"/>
    <circle cx="526" cy="254" r="3.10"/>
    <circle cx="734" cy="254" r="3.10"/>
    <circle cx="750" cy="254" r="3.10"/>
    <circle cx="766" cy="254" r="3.10"/>
    <circle cx="270" cy="270" r="2.35"/>
    <circle cx="286" cy="270" r="3.10"/>
    <circle cx="302" cy="270" r="3.10"/>
    <circle cx="318" cy="270" r="3.10"/>
    <circle cx="334" cy="270" r="3.10"/>
    <circle cx="462" cy="270" r="3.10"/>
    <circle cx="478" cy="270" r="3.10"/>
    <circle cx="494" cy="270" r="3.10"/>
    <circle cx="510" cy="270" r="3.10"/>
    <circle cx="542" cy="270" r="3.10"/>
    <circle cx="718" cy="270" r="3.10"/>
    <circle cx="734" cy="270" r="3.10"/>
    <circle cx="750" cy="270" r="3.10"/>
    <circle cx="766" cy="270" r="3.10"/>
    <circle cx="782" cy="270" r="3.10"/>
    <circle cx="270" cy="286" r="3.10"/>
    <circle cx="286" cy="286" r="2.35"/>
    <circle cx="302" cy="286" r="3.10"/>
    <circle cx="318" cy="286" r="3.10"/>
    <circle cx="478" cy="286" r="3.10"/>
    <circle cx="494" cy="286" r="3.10"/>
    <circle cx="510" cy="286" r="3.10"/>
    <circle cx="542" cy="286" r="3.10"/>
    <circle cx="702" cy="286" r="3.10"/>
    <circle cx="718" cy="286" r="2.35"/>
    <circle cx="734" cy="286" r="3.10"/>
    <circle cx="750" cy="286" r="3.10"/>
    <circle cx="766" cy="286" r="3.10"/>
    <circle cx="782" cy="286" r="3.10"/>
    <circle cx="270" cy="302" r="3.10"/>
    <circle cx="286" cy="302" r="3.10"/>
    <circle cx="302" cy="302" r="2.35"/>
    <circle cx="318" cy="302" r="3.10"/>
    <circle cx="478" cy="302" r="3.10"/>
    <circle cx="494" cy="302" r="3.10"/>
    <circle cx="702" cy="302" r="3.10"/>
    <circle cx="718" cy="302" r="3.10"/>
    <circle cx="734" cy="302" r="2.35"/>
    <circle cx="750" cy="302" r="3.10"/>
    <circle cx="766" cy="302" r="3.10"/>
    <circle cx="782" cy="302" r="3.10"/>
    <circle cx="270" cy="318" r="3.10"/>
    <circle cx="286" cy="318" r="3.10"/>
    <circle cx="302" cy="318" r="3.10"/>
    <circle cx="750" cy="318" r="2.35"/>
    <circle cx="766" cy="318" r="3.10"/>
    <circle cx="286" cy="334" r="3.10"/>
    <circle cx="750" cy="334" r="3.10"/>
    <circle cx="814" cy="334" r="3.10"/>
    <circle cx="286" cy="350" r="3.10"/>
  </g>
</svg>
